<svg data-v-fde0c5aa="" xmlns="http://www.w3.org/2000/svg" viewBox="0 0 300 300" class="iconAbove"><!----><defs data-v-fde0c5aa=""><!----></defs><rect data-v-fde0c5aa="" fill="#FF6906" x="0" y="0" width="300px" height="300px" class="logo-background-square"></rect><defs data-v-fde0c5aa=""><!----></defs><g data-v-fde0c5aa="" id="22f7778e-d66b-4648-b879-def44785aa06" fill="#ffffff" transform="matrix(5.546117782592773,0,0,5.546117782592773,62.39950664950665,172.9736164736165)"><path d="M3.06 4.75L3.06 8.47L3.06 8.47Q3.06 8.96 2.90 9.15L2.90 9.15L2.90 9.15Q2.73 9.34 2.41 9.34L2.41 9.34L2.41 9.34Q2.57 9.34 2.69 9.42L2.69 9.42L2.69 9.42Q2.82 9.50 2.90 9.62L2.90 9.62L2.90 9.62Q2.98 9.74 3.02 9.90L3.02 9.90L3.02 9.90Q3.06 10.06 3.06 10.22L3.06 10.22L3.06 15.47L2.19 15.47L2.19 10.00L2.19 10.00Q2.19 9.84 2.11 9.75L2.11 9.75L2.11 9.75Q2.04 9.66 1.91 9.62L1.91 9.62L1.91 9.62Q1.79 9.58 1.63 9.57L1.63 9.57L1.63 9.57Q1.48 9.56 1.31 9.56L1.31 9.56L1.31 15.47L0.44 15.47L0.44 3.66L1.31 3.66L1.31 3.66Q1.64 3.66 1.96 3.67L1.96 3.67L1.96 3.67Q2.27 3.69 2.52 3.79L2.52 3.79L2.52 3.79Q2.76 3.90 2.91 4.12L2.91 4.12L2.91 4.12Q3.06 4.34 3.06 4.75L3.06 4.75ZM2.19 8.69L2.19 4.75L2.19 4.75Q2.19 4.59 2.14 4.50L2.14 4.50L2.14 4.50Q2.10 4.41 2.00 4.37L2.00 4.37L2.00 4.37Q1.89 4.33 1.73 4.32L1.73 4.32L1.73 4.32Q1.56 4.31 1.31 4.31L1.31 4.31L1.31 9.13L1.31 9.13Q1.48 9.13 1.63 9.12L1.63 9.12L1.63 9.12Q1.79 9.11 1.91 9.07L1.91 9.07L1.91 9.07Q2.04 9.03 2.11 8.94L2.11 8.94L2.11 8.94Q2.19 8.85 2.19 8.69L2.19 8.69ZM5.69 4.97L5.69 5.63L4.81 5.63L4.81 9.56L5.69 9.56L5.69 10.22L4.81 10.22L4.81 14.81L5.69 14.81L5.69 15.47L3.94 15.47L3.94 4.97L5.69 4.97ZM8.09 14.60L8.09 5.83L8.09 5.83Q8.09 5.70 7.97 5.67L7.97 5.67L7.97 5.67Q7.85 5.63 7.22 5.63L7.22 5.63L7.22 14.81L7.22 14.81Q7.85 14.81 7.97 14.77L7.97 14.77L7.97 14.77Q8.09 14.73 8.09 14.60L8.09 14.60ZM8.97 5.85L8.97 14.55L8.97 14.55Q8.97 14.90 8.82 15.08L8.82 15.08L8.82 15.08Q8.67 15.27 8.39 15.36L8.39 15.36L8.39 15.36Q8.25 15.40 8.05 15.43L8.05 15.43L8.05 15.43Q7.85 15.45 7.51 15.46L7.51 15.46L7.51 15.46Q7.16 15.47 6.89 15.47L6.89 15.47L6.34 15.47L6.34 4.97L6.34 4.97Q6.62 4.97 6.91 4.97L6.91 4.97L6.91 4.97Q7.19 4.98 7.49 4.98L7.49 4.98L7.49 4.98Q8.09 5.00 8.37 5.07L8.37 5.07L8.37 5.07Q8.67 5.15 8.82 5.34L8.82 5.34L8.82 5.34Q8.97 5.52 8.97 5.85L8.97 5.85ZM9.95 4.97L10.83 4.97L10.83 15.47L9.95 15.47L9.95 4.97ZM14.22 5.95L14.22 8.69L13.34 8.69L13.34 5.95L13.34 5.95Q13.34 5.71 13.24 5.61L13.24 5.61L13.24 5.61Q13.14 5.52 13.02 5.52L13.02 5.52L13.02 5.52Q12.89 5.52 12.79 5.61L12.79 5.61L12.79 5.61Q12.69 5.71 12.69 5.95L12.69 5.95L12.69 5.95Q12.69 6.69 12.76 7.30L12.76 7.30L12.76 7.30Q12.82 7.92 12.93 8.44L12.93 8.44L12.93 8.44Q13.04 8.96 13.18 9.38L13.18 9.38L13.18 9.38Q13.32 9.81 13.45 10.17L13.45 10.17L13.45 10.17Q13.56 10.45 13.70 10.81L13.70 10.81L13.70 10.81Q13.83 11.18 13.95 11.70L13.95 11.70L13.95 11.70Q14.06 12.21 14.14 12.89L14.14 12.89L14.14 12.89Q14.22 13.58 14.22 14.49L14.22 14.49L14.22 14.49Q14.22 14.77 14.12 14.98L14.12 14.98L14.12 14.98Q14.01 15.19 13.84 15.32L13.84 15.32L13.84 15.32Q13.67 15.46 13.46 15.52L13.46 15.52L13.46 15.52Q13.24 15.58 13.02 15.58L13.02 15.58L13.02 15.58Q12.79 15.58 12.57 15.52L12.57 15.52L12.57 15.52Q12.36 15.46 12.19 15.32L12.19 15.32L12.19 15.32Q12.02 15.19 11.92 14.98L11.92 14.98L11.92 14.98Q11.81 14.77 11.81 14.49L11.81 14.49L11.81 11.75L12.69 11.75L12.69 14.49L12.69 14.49Q12.69 14.73 12.79 14.83L12.79 14.83L12.79 14.83Q12.89 14.92 13.02 14.92L13.02 14.92L13.02 14.92Q13.14 14.92 13.24 14.83L13.24 14.83L13.24 14.83Q13.34 14.73 13.34 14.49L13.34 14.49L13.34 14.49Q13.34 13.60 13.26 12.94L13.26 12.94L13.26 12.94Q13.17 12.27 13.04 11.76L13.04 11.76L13.04 11.76Q12.91 11.25 12.76 10.87L12.76 10.87L12.76 10.87Q12.61 10.49 12.48 10.17L12.48 10.17L12.48 10.17Q12.35 9.85 12.23 9.45L12.23 9.45L12.23 9.45Q12.11 9.04 12.01 8.53L12.01 8.53L12.01 8.53Q11.92 8.02 11.87 7.38L11.87 7.38L11.87 7.38Q11.81 6.74 11.81 5.95L11.81 5.95L11.81 5.95Q11.81 5.67 11.92 5.46L11.92 5.46L11.92 5.46Q12.02 5.26 12.19 5.12L12.19 5.12L12.19 5.12Q12.36 4.99 12.57 4.93L12.57 4.93L12.57 4.93Q12.79 4.86 13.02 4.86L13.02 4.86L13.02 4.86Q13.24 4.86 13.46 4.93L13.46 4.93L13.46 4.93Q13.67 4.99 13.84 5.12L13.84 5.12L13.84 5.12Q14.01 5.26 14.12 5.46L14.12 5.46L14.12 5.46Q14.22 5.67 14.22 5.95L14.22 5.95ZM18.25 14.38L18.25 12.59L18.25 12.59Q18.25 11.87 18.17 11.35L18.17 11.35L18.17 11.35Q18.09 10.83 17.97 10.44L17.97 10.44L17.97 10.44Q17.85 10.06 17.69 9.77L17.69 9.77L17.69 9.77Q17.53 9.48 17.37 9.23L17.37 9.23L17.37 9.23Q17.21 8.98 17.05 8.72L17.05 8.72L17.05 8.72Q16.89 8.47 16.77 8.15L16.77 8.15L16.77 8.15Q16.65 7.83 16.57 7.41L16.57 7.41L16.57 7.41Q16.50 6.99 16.50 6.40L16.50 6.40L16.50 4.75L16.50 4.75Q16.50 4.59 16.55 4.38L16.55 4.38L16.55 4.38Q16.60 4.17 16.74 3.99L16.74 3.99L16.74 3.99Q16.88 3.81 17.14 3.68L17.14 3.68L17.14 3.68Q17.40 3.55 17.81 3.55L17.81 3.55L17.81 3.55Q18.22 3.55 18.47 3.68L18.47 3.68L18.47 3.68Q18.73 3.81 18.87 3.99L18.87 3.99L18.87 3.99Q19.02 4.17 19.07 4.38L19.07 4.38L19.07 4.38Q19.12 4.59 19.12 4.75L19.12 4.75L19.12 7.81L18.25 7.81L18.25 4.75L18.25 4.75Q18.25 4.59 18.21 4.48L18.21 4.48L18.21 4.48Q18.17 4.38 18.11 4.32L18.11 4.32L18.11 4.32Q18.05 4.26 17.97 4.23L17.97 4.23L17.97 4.23Q17.89 4.21 17.81 4.21L17.81 4.21L17.81 4.21Q17.73 4.21 17.65 4.23L17.65 4.23L17.65 4.23Q17.57 4.26 17.51 4.32L17.51 4.32L17.51 4.32Q17.45 4.38 17.41 4.48L17.41 4.48L17.41 4.48Q17.37 4.59 17.37 4.75L17.37 4.75L17.37 6.08L17.37 6.08Q17.37 6.86 17.50 7.38L17.50 7.38L17.50 7.38Q17.63 7.90 17.82 8.28L17.82 8.28L17.82 8.28Q18.02 8.67 18.25 8.98L18.25 8.98L18.25 8.98Q18.47 9.30 18.67 9.66L18.67 9.66L18.67 9.66Q18.86 10.03 18.99 10.51L18.99 10.51L18.99 10.51Q19.12 10.99 19.12 11.71L19.12 11.71L19.12 14.38L19.12 14.38Q19.12 14.46 19.10 14.67L19.10 14.67L19.10 14.67Q19.08 14.89 18.96 15.11L18.96 15.11L18.96 15.11Q18.83 15.34 18.57 15.51L18.57 15.51L18.57 15.51Q18.30 15.69 17.81 15.69L17.81 15.69L17.81 15.69Q17.32 15.69 17.05 15.51L17.05 15.51L17.05 15.51Q16.78 15.34 16.66 15.11L16.66 15.11L16.66 15.11Q16.54 14.89 16.52 14.67L16.52 14.67L16.52 14.67Q16.50 14.46 16.50 14.38L16.50 14.38L16.50 10.44L17.37 10.44L17.37 14.38L17.37 14.38Q17.37 14.46 17.38 14.57L17.38 14.57L17.38 14.57Q17.38 14.68 17.42 14.79L17.42 14.79L17.42 14.79Q17.47 14.89 17.55 14.96L17.55 14.96L17.55 14.96Q17.64 15.03 17.81 15.03L17.81 15.03L17.81 15.03Q17.97 15.03 18.06 14.96L18.06 14.96L18.06 14.96Q18.15 14.89 18.19 14.79L18.19 14.79L18.19 14.79Q18.23 14.68 18.24 14.57L18.24 14.57L18.24 14.57Q18.25 14.46 18.25 14.38L18.25 14.38ZM19.45 4.97L22.07 4.97L22.07 5.63L21.20 5.63L21.20 15.47L20.32 15.47L20.32 5.63L19.45 5.63L19.45 4.97ZM25.25 5.95L25.25 14.49L25.25 14.49Q25.25 14.77 25.14 14.98L25.14 14.98L25.14 14.98Q25.03 15.19 24.86 15.33L24.86 15.33L24.86 15.33Q24.68 15.46 24.45 15.53L24.45 15.53L24.45 15.53Q24.23 15.59 23.99 15.59L23.99 15.59L23.99 15.59Q23.73 15.59 23.49 15.52L23.49 15.52L23.49 15.52Q23.24 15.45 23.05 15.31L23.05 15.31L23.05 15.31Q22.86 15.17 22.74 14.96L22.74 14.96L22.74 14.96Q22.62 14.75 22.62 14.49L22.62 14.49L22.62 5.95L22.62 5.95Q22.62 5.69 22.74 5.49L22.74 5.49L22.74 5.49Q22.86 5.29 23.05 5.15L23.05 5.15L23.05 5.15Q23.25 5.02 23.50 4.95L23.50 4.95L23.50 4.95Q23.74 4.87 23.99 4.87L23.99 4.87L23.99 4.87Q24.23 4.87 24.46 4.94L24.46 4.94L24.46 4.94Q24.68 5.00 24.86 5.14L24.86 5.14L24.86 5.14Q25.03 5.27 25.14 5.48L25.14 5.48L25.14 5.48Q25.25 5.68 25.25 5.95L25.25 5.95ZM24.37 14.49L24.37 5.95L24.37 5.95Q24.37 5.72 24.26 5.62L24.26 5.62L24.26 5.62Q24.14 5.52 23.99 5.52L23.99 5.52L23.99 5.52Q23.91 5.52 23.82 5.55L23.82 5.55L23.82 5.55Q23.73 5.58 23.66 5.64L23.66 5.64L23.66 5.64Q23.58 5.70 23.54 5.78L23.54 5.78L23.54 5.78Q23.50 5.86 23.50 5.95L23.50 5.95L23.50 14.49L23.50 14.49Q23.50 14.58 23.54 14.66L23.54 14.66L23.54 14.66Q23.58 14.75 23.66 14.80L23.66 14.80L23.66 14.80Q23.73 14.85 23.81 14.89L23.81 14.89L23.81 14.89Q23.90 14.92 23.99 14.92L23.99 14.92L23.99 14.92Q24.14 14.92 24.25 14.82L24.25 14.82L24.25 14.82Q24.37 14.72 24.37 14.49L24.37 14.49ZM28.53 5.84L28.53 9.34L28.53 9.34Q28.53 9.67 28.36 9.85L28.36 9.85L28.36 9.85Q28.20 10.03 27.87 10.10L27.87 10.10L27.87 10.10Q28.20 10.19 28.36 10.37L28.36 10.37L28.36 10.37Q28.53 10.55 28.53 10.88L28.53 10.88L28.53 15.47L27.65 15.47L27.65 10.88L27.65 10.88Q27.65 10.71 27.61 10.62L27.61 10.62L27.61 10.62Q27.57 10.53 27.49 10.49L27.49 10.49L27.49 10.49Q27.41 10.45 27.28 10.45L27.28 10.45L27.28 10.45Q27.16 10.44 27.00 10.44L27.00 10.44L27.00 15.47L26.12 15.47L26.12 4.97L27.10 4.97L27.10 4.97Q27.55 4.97 27.87 5.04L27.87 5.04L27.87 5.04Q28.18 5.11 28.36 5.29L28.36 5.29L28.36 5.29Q28.53 5.48 28.53 5.84L28.53 5.84ZM27.65 9.34L27.65 6.06L27.65 6.06Q27.65 5.90 27.61 5.81L27.61 5.81L27.61 5.81Q27.57 5.72 27.49 5.68L27.49 5.68L27.49 5.68Q27.41 5.64 27.28 5.63L27.28 5.63L27.28 5.63Q27.16 5.63 27.00 5.63L27.00 5.63L27.00 9.78L27.00 9.78Q27.16 9.78 27.28 9.78L27.28 9.78L27.28 9.78Q27.41 9.77 27.49 9.73L27.49 9.73L27.49 9.73Q27.57 9.69 27.61 9.60L27.61 9.60L27.61 9.60Q27.65 9.51 27.65 9.34L27.65 9.34ZM31.15 4.97L31.15 5.63L30.28 5.63L30.28 9.56L31.15 9.56L31.15 10.22L30.28 10.22L30.28 14.81L31.15 14.81L31.15 15.47L29.40 15.47L29.40 4.97L31.15 4.97Z"></path></g><defs data-v-fde0c5aa=""><!----></defs><g data-v-fde0c5aa="" id="05f34101-28d5-4671-b66c-daf87e935d22" stroke="none" fill="#FFB31D" transform="matrix(1.346666693687439,0,0,1.346666693687439,82.66666666666666,39.999999999999986)"><path d="M100 0L25 50l18.75 12.5L0 100l75-37.5L56.25 50z"></path></g><!----></svg>